<svg width="18" height="16" viewBox="0 0 18 16" fill="none" xmlns="http://www.w3.org/2000/svg">
<path d="M6.47826 1.6087H4.78365C4.39323 1.60877 4.01312 1.73396 3.69907 1.96592C3.38503 2.19787 3.15359 2.52437 3.03872 2.89751L1.08116 9.25959C1.02754 9.43338 1.00019 9.61419 1 9.79606V13.1739C1 13.6582 1.19239 14.1227 1.53485 14.4652C1.87731 14.8076 2.34178 15 2.82609 15H15C15.4843 15 15.9488 14.8076 16.2912 14.4652C16.6337 14.1227 16.8261 13.6582 16.8261 13.1739V9.79606C16.8261 9.61426 16.7985 9.43328 16.7449 9.25959L14.789 2.89751C14.6741 2.52437 14.4427 2.19787 14.1286 1.96592C13.8146 1.73396 13.4345 1.60877 13.0441 1.6087H11.3478M1 9.52174H4.13275C4.47184 9.52183 4.8042 9.61632 5.0926 9.79464C5.38101 9.97296 5.61407 10.2281 5.76568 10.5314L5.97345 10.9469C6.12512 11.2503 6.35831 11.5055 6.64687 11.6838C6.93544 11.8622 7.26797 11.9566 7.60719 11.9565H10.2189C10.5581 11.9566 10.8907 11.8622 11.1792 11.6838C11.4678 11.5055 11.701 11.2503 11.8526 10.9469L12.0604 10.5314C12.2121 10.2279 12.4453 9.97276 12.7338 9.79443C13.0224 9.6161 13.3549 9.52168 13.6941 9.52174H16.8261M8.91304 1V7.69565M8.91304 7.69565L6.47826 5.26087M8.91304 7.69565L11.3478 5.26087" stroke="white" stroke-linecap="round" stroke-linejoin="round"/>
</svg>
